<svg width="40" height="39" viewBox="0 0 40 39" fill="none" xmlns="http://www.w3.org/2000/svg">
<path fill-rule="evenodd" clip-rule="evenodd" d="M20.2444 34.3313C28.6637 34.3313 35.4889 27.5061 35.4889 19.0868C35.4889 10.6676 28.6637 3.8424 20.2444 3.8424C11.8252 3.8424 5 10.6676 5 19.0868C5 27.5061 11.8252 34.3313 20.2444 34.3313ZM19.9333 27.4869C24.4007 27.4869 28.0222 23.8653 28.0222 19.398C28.0222 14.9306 24.4007 11.3091 19.9333 11.3091C15.466 11.3091 11.8444 14.9306 11.8444 19.398C11.8444 23.8653 15.466 27.4869 19.9333 27.4869Z" fill="#F184D5"/>
<path d="M13.8092 0L33.7204 34.4871L27.254 38.2204L7.34292 3.73333L13.8092 0Z" fill="#66C7F1"/>
<path d="M31.042 29.8482C29.2811 31.615 27.0893 32.9522 24.6376 33.6888L21.0155 27.4151C23.6909 27.0574 25.9524 25.392 27.1361 23.0829L31.042 29.8482Z" fill="#ACA6E3"/>
<path d="M16.3217 4.35191C13.8422 5.0103 11.6107 6.27795 9.79746 7.98486L13.5317 14.4527C15.0111 12.5404 17.3285 11.3091 19.9333 11.3091C20.0712 11.3091 20.2082 11.3126 20.3444 11.3194L16.3217 4.35191Z" fill="#ACA6E3"/>
</svg>
