<svg width="476" height="79" viewBox="0 0 476 79" fill="none" xmlns="http://www.w3.org/2000/svg">
<path fill-rule="evenodd" clip-rule="evenodd" d="M451.5 64C465.031 64 476 53.031 476 39.5C476 25.969 465.031 15 451.5 15C437.969 15 427 25.969 427 39.5C427 53.031 437.969 64 451.5 64ZM451 53C458.18 53 464 47.1797 464 40C464 32.8203 458.18 27 451 27C443.82 27 438 32.8203 438 40C438 47.1797 443.82 53 451 53Z" fill="#F184D5"/>
<path fill-rule="evenodd" clip-rule="evenodd" d="M398.5 64C412.031 64 423 53.031 423 39.5C423 25.969 412.031 15 398.5 15C384.969 15 374 25.969 374 39.5C374 53.031 384.969 64 398.5 64ZM398 53C405.18 53 411 47.1797 411 40C411 32.8203 405.18 27 398 27C390.82 27 385 32.8203 385 40C385 47.1797 390.82 53 398 53Z" fill="#F184D5"/>
<path d="M423 0V64H411V0H423Z" fill="#66C7F1"/>
<path d="M411 18.4243V60.5757C418.185 56.3051 423 48.4649 423 39.5C423 30.5351 418.185 22.6949 411 18.4243Z" fill="#ACA6E3"/>
<path d="M332 59.9483C325.372 55.5635 321 48.0423 321 39.5C321 25.969 331.969 15 345.5 15C359.031 15 370 25.969 370 39.5C370 39.6671 369.998 39.8337 369.995 40H358C358 32.8203 352.18 27 345 27C337.82 27 332 32.8203 332 40V59.9483Z" fill="#F184D5"/>
<path d="M332 15V64H321V15H332Z" fill="#66C7F1"/>
<path d="M321 39.5C321 48.0423 325.372 55.5635 332 59.9483V19.0518C325.372 23.4365 321 30.9577 321 39.5Z" fill="#ACA6E3"/>
<path d="M370 40V64H358V40H370Z" fill="#66C7F1"/>
<path fill-rule="evenodd" clip-rule="evenodd" d="M292.5 64C306.031 64 317 53.031 317 39.5C317 25.969 306.031 15 292.5 15C278.969 15 268 25.969 268 39.5C268 53.031 278.969 64 292.5 64ZM292 53C299.18 53 305 47.1797 305 40C305 32.8203 299.18 27 292 27C284.82 27 279 32.8203 279 40C279 47.1797 284.82 53 292 53Z" fill="#F184D5"/>
<path d="M226.204 61L206.736 14L195.649 18.5922L213.215 61H226.204Z" fill="#66C7F1"/>
<path d="M213.223 61L232.784 14.0087L243.863 18.6202L226.222 61H213.223Z" fill="#66C7F1"/>
<path d="M219.73 45.3698L226.204 61H213.223L219.73 45.3698Z" fill="#ACA6E3"/>
<path d="M213.264 61C210.886 63.6112 207.459 65.25 203.649 65.25C200.88 65.25 198.313 64.3841 196.204 62.9084L190 73.426C193.799 75.8472 198.31 77.25 203.149 77.25C213.786 77.25 222.839 70.4722 226.226 61H213.264Z" fill="#F184D5"/>
<path d="M166 14V63H155V14H166Z" fill="#66C7F1"/>
<path d="M192.649 17.824L186.445 28.3416C184.336 26.8658 181.769 26 179 26C171.82 26 166 31.8203 166 39V58.9483C159.372 54.5635 155 47.0423 155 38.5C155 24.969 165.969 14 179.5 14C184.339 14 188.85 15.4028 192.649 17.824Z" fill="#F184D5"/>
<path d="M166 18.0518V39V58.9483C159.372 54.5635 155 47.0423 155 38.5C155 29.9577 159.372 22.4365 166 18.0518Z" fill="#ACA6E3"/>
<path d="M145 34H106V46H145V34Z" fill="#66C7F1"/>
<path d="M144.724 53.6902C140.237 59.3613 133.293 63 125.5 63C111.969 63 101 52.031 101 38.5C101 24.969 111.969 14 125.5 14C139.031 14 150 24.969 150 38.5C150 41.116 149.59 43.6363 148.831 46H135.956C137.25 43.9794 138 41.5773 138 39C138 31.8203 132.18 26 125 26C117.82 26 112 31.8203 112 39C112 46.1797 117.82 52 125 52C128.158 52 131.054 50.8737 133.306 49.0008L144.724 53.6902Z" fill="#F184D5"/>
<path d="M102.169 46H114.044C112.75 43.9794 112 41.5773 112 39C112 37.2282 112.354 35.5392 112.996 34H101.412C101.142 35.4587 101 36.9628 101 38.5C101 41.116 101.41 43.6363 102.169 46Z" fill="#ACA6E3"/>
<path d="M137.004 34H149.588C149.858 35.4587 150 36.9628 150 38.5C150 41.116 149.59 43.6363 148.831 46H135.956C137.25 43.9794 138 41.5773 138 39C138 37.2282 137.646 35.5392 137.004 34Z" fill="#ACA6E3"/>
<path d="M144.724 53.6902C140.237 59.3613 133.293 63 125.5 63C111.969 63 101 52.031 101 38.5C101 24.969 111.969 14 125.5 14C139.031 14 150 24.969 150 38.5C150 41.116 149.59 43.6363 148.831 46H135.956C137.25 43.9794 138 41.5773 138 39C138 31.8203 132.18 26 125 26C117.82 26 112 31.8203 112 39C112 46.1797 117.82 52 125 52C128.158 52 131.054 50.8737 133.306 49.0008L144.724 53.6902Z" fill="#F184D5"/>
<path d="M102.169 46H114.044C112.75 43.9794 112 41.5773 112 39C112 37.2282 112.354 35.5392 112.996 34H101.412C101.142 35.4587 101 36.9628 101 38.5C101 41.116 101.41 43.6363 102.169 46Z" fill="#ACA6E3"/>
<path d="M137.004 34H149.588C149.858 35.4587 150 36.9628 150 38.5C150 41.116 149.59 43.6363 148.831 46H135.956C137.25 43.9794 138 41.5773 138 39C138 37.2282 137.646 35.5392 137.004 34Z" fill="#ACA6E3"/>
<path d="M83.5546 62L64.0866 15L53 19.5922L70.5659 62H83.5546Z" fill="#66C7F1"/>
<path d="M70.5741 62L90.1347 15.0087L101.213 19.6202L83.5722 62H70.5741Z" fill="#66C7F1"/>
<path d="M77.0803 46.3698L83.5546 62H70.5741L77.0803 46.3698Z" fill="#ACA6E3"/>
<path fill-rule="evenodd" clip-rule="evenodd" d="M24.5 63C38.031 63 49 52.031 49 38.5C49 24.969 38.031 14 24.5 14C10.969 14 0 24.969 0 38.5C0 52.031 10.969 63 24.5 63ZM24 52C31.1797 52 37 46.1797 37 39C37 31.8203 31.1797 26 24 26C16.8203 26 11 31.8203 11 39C11 46.1797 16.8203 52 24 52Z" fill="#F184D5"/>
<path d="M49 14V63H37V14H49Z" fill="#66C7F1"/>
<path d="M37 17.4243V59.5757C44.185 55.3051 49 47.4649 49 38.5C49 29.5351 44.185 21.6949 37 17.4243Z" fill="#ACA6E3"/>
</svg>
