<svg width="244" height="113" viewBox="0 0 244 113" fill="none" xmlns="http://www.w3.org/2000/svg">
<path fill-rule="evenodd" clip-rule="evenodd" d="M183.5 113C197.031 113 208 102.031 208 88.5C208 74.969 197.031 64 183.5 64C169.969 64 159 74.969 159 88.5C159 102.031 169.969 113 183.5 113ZM183 102C190.18 102 196 96.1797 196 89C196 81.8203 190.18 76 183 76C175.82 76 170 81.8203 170 89C170 96.1797 175.82 102 183 102Z" fill="#F184D5"/>
<path fill-rule="evenodd" clip-rule="evenodd" d="M130.5 113C144.031 113 155 102.031 155 88.5C155 74.969 144.031 64 130.5 64C116.969 64 106 74.969 106 88.5C106 102.031 116.969 113 130.5 113ZM130 102C137.18 102 143 96.1797 143 89C143 81.8203 137.18 76 130 76C122.82 76 117 81.8203 117 89C117 96.1797 122.82 102 130 102Z" fill="#F184D5"/>
<path d="M155 49V113H143V49H155Z" fill="#66C7F1"/>
<path d="M143 67.4243V109.576C150.185 105.305 155 97.4649 155 88.5C155 79.5351 150.185 71.6949 143 67.4243Z" fill="#ACA6E3"/>
<path d="M53 88.5C53 97.0423 57.3714 104.563 63.9991 108.948V88.6826H64.0029C64.1714 81.6495 69.925 76 76.998 76C84.1771 76 90.0394 81.8886 90.0394 89.0683C90.0394 89.091 90.0395 89.0455 90.0394 89.0683V109.55C97.2003 105.274 101.996 97.4472 101.996 88.5C101.996 74.969 91.0279 64 77.498 64C63.9681 64 53 74.969 53 88.5Z" fill="#F184D5"/>
<path d="M102 89.0683V112.98H90.0394V89.0683H102Z" fill="#66C7F1"/>
<path d="M101.99 89.0683C101.791 97.7779 97.0483 105.365 90.0394 109.55V89.0683H101.99Z" fill="#ACA6E3"/>
<path d="M63.9991 64V113H53V64H63.9991Z" fill="#66C7F1"/>
<path d="M53 88.5C53 97.0423 57.3714 104.563 63.9991 108.948L63.9991 89C63.9991 88.9971 63.9991 88.9941 63.9991 88.9912V68.0518C57.3714 72.4365 53 79.9577 53 88.5Z" fill="#ACA6E3"/>
<path fill-rule="evenodd" clip-rule="evenodd" d="M24.5 113C38.031 113 49 102.031 49 88.5C49 74.969 38.031 64 24.5 64C10.969 64 0 74.969 0 88.5C0 102.031 10.969 113 24.5 113ZM24 102C31.1797 102 37 96.1797 37 89C37 81.8203 31.1797 76 24 76C16.8203 76 11 81.8203 11 89C11 96.1797 16.8203 102 24 102Z" fill="#F184D5"/>
<path d="M226.204 47L206.736 0L195.649 4.5922L213.215 47H226.204Z" fill="#66C7F1"/>
<path d="M213.223 47L232.784 0.00866699L243.863 4.62021L226.222 47H213.223Z" fill="#66C7F1"/>
<path d="M219.73 31.3698L226.204 47H213.223L219.73 31.3698Z" fill="#ACA6E3"/>
<path d="M213.264 47C210.886 49.6112 207.459 51.25 203.649 51.25C200.88 51.25 198.313 50.3841 196.204 48.9084L190 59.426C193.799 61.8472 198.31 63.25 203.149 63.25C213.786 63.25 222.839 56.4722 226.226 47H213.264Z" fill="#F184D5"/>
<path d="M166 0V49H155V0H166Z" fill="#66C7F1"/>
<path d="M192.649 3.82399L186.445 14.3416C184.336 12.8658 181.769 12 179 12C171.82 12 166 17.8203 166 25V44.9483C159.372 40.5635 155 33.0423 155 24.5C155 10.969 165.969 0 179.5 0C184.339 0 188.85 1.40283 192.649 3.82399Z" fill="#F184D5"/>
<path d="M166 4.05176V25V44.9483C159.372 40.5635 155 33.0423 155 24.5C155 15.9577 159.372 8.43654 166 4.05176Z" fill="#ACA6E3"/>
<path d="M145 20H106V32H145V20Z" fill="#66C7F1"/>
<path d="M144.724 39.6902C140.237 45.3613 133.293 49 125.5 49C111.969 49 101 38.031 101 24.5C101 10.969 111.969 0 125.5 0C139.031 0 150 10.969 150 24.5C150 27.116 149.59 29.6363 148.831 32H135.956C137.25 29.9794 138 27.5773 138 25C138 17.8203 132.18 12 125 12C117.82 12 112 17.8203 112 25C112 32.1797 117.82 38 125 38C128.158 38 131.054 36.8737 133.306 35.0008L144.724 39.6902Z" fill="#F184D5"/>
<path d="M102.169 32H114.044C112.75 29.9794 112 27.5773 112 25C112 23.2282 112.354 21.5392 112.996 20H101.412C101.142 21.4587 101 22.9628 101 24.5C101 27.116 101.41 29.6363 102.169 32Z" fill="#ACA6E3"/>
<path d="M137.004 20H149.588C149.858 21.4587 150 22.9628 150 24.5C150 27.116 149.59 29.6363 148.831 32H135.956C137.25 29.9794 138 27.5773 138 25C138 23.2282 137.646 21.5392 137.004 20Z" fill="#ACA6E3"/>
<path d="M144.724 39.6902C140.237 45.3613 133.293 49 125.5 49C111.969 49 101 38.031 101 24.5C101 10.969 111.969 0 125.5 0C139.031 0 150 10.969 150 24.5C150 27.116 149.59 29.6363 148.831 32H135.956C137.25 29.9794 138 27.5773 138 25C138 17.8203 132.18 12 125 12C117.82 12 112 17.8203 112 25C112 32.1797 117.82 38 125 38C128.158 38 131.054 36.8737 133.306 35.0008L144.724 39.6902Z" fill="#F184D5"/>
<path d="M102.169 32H114.044C112.75 29.9794 112 27.5773 112 25C112 23.2282 112.354 21.5392 112.996 20H101.412C101.142 21.4587 101 22.9628 101 24.5C101 27.116 101.41 29.6363 102.169 32Z" fill="#ACA6E3"/>
<path d="M137.004 20H149.588C149.858 21.4587 150 22.9628 150 24.5C150 27.116 149.59 29.6363 148.831 32H135.956C137.25 29.9794 138 27.5773 138 25C138 23.2282 137.646 21.5392 137.004 20Z" fill="#ACA6E3"/>
<path d="M83.5546 48L64.0866 1L53 5.5922L70.5659 48H83.5546Z" fill="#66C7F1"/>
<path d="M70.5741 48L90.1347 1.00867L101.213 5.62021L83.5722 48H70.5741Z" fill="#66C7F1"/>
<path d="M77.0803 32.3698L83.5546 48H70.5741L77.0803 32.3698Z" fill="#ACA6E3"/>
<path fill-rule="evenodd" clip-rule="evenodd" d="M24.5 49C38.031 49 49 38.031 49 24.5C49 10.969 38.031 0 24.5 0C10.969 0 0 10.969 0 24.5C0 38.031 10.969 49 24.5 49ZM24 38C31.1797 38 37 32.1797 37 25C37 17.8203 31.1797 12 24 12C16.8203 12 11 17.8203 11 25C11 32.1797 16.8203 38 24 38Z" fill="#F184D5"/>
<path d="M49 0V49H37V0H49Z" fill="#66C7F1"/>
<path d="M37 3.42426V45.5757C44.185 41.3051 49 33.4649 49 24.5C49 15.5351 44.185 7.69485 37 3.42426Z" fill="#ACA6E3"/>
</svg>
