<svg width="49" height="49" viewBox="0 0 49 49" fill="none" xmlns="http://www.w3.org/2000/svg">
<path fill-rule="evenodd" clip-rule="evenodd" d="M24.5 49C38.031 49 49 38.031 49 24.5C49 10.969 38.031 0 24.5 0C10.969 0 0 10.969 0 24.5C0 38.031 10.969 49 24.5 49ZM24 38C31.1797 38 37 32.1797 37 25C37 17.8203 31.1797 12 24 12C16.8203 12 11 17.8203 11 25C11 32.1797 16.8203 38 24 38Z" fill="#F184D5"/>
<path d="M49 0V49H37V0H49Z" fill="#66C7F1"/>
<path d="M37 3.42426V45.5757C44.185 41.3051 49 33.4649 49 24.5C49 15.5351 44.185 7.69485 37 3.42426Z" fill="#ACA6E3"/>
</svg>
