<svg width="545" height="332" viewBox="0 0 545 332" fill="none" xmlns="http://www.w3.org/2000/svg">
<path d="M407.07 0V332H376V0H407.07Z" fill="#66C7F1"/>
<path d="M480 166V0H448.93V166H480Z" fill="#66C7F1"/>
<path d="M345 39H510.947V70.0995H345V39Z" fill="#66C7F1"/>
<path d="M376 70.0995H407.099V39H376V70.0995Z" fill="#ACA6E3"/>
<path d="M449 39V70.0995H480.099V39H449Z" fill="#ACA6E3"/>
<path fill-rule="evenodd" clip-rule="evenodd" d="M267.495 166.053C302.562 166.053 330.99 137.611 330.99 102.527C330.99 67.4418 302.562 39 267.495 39C232.428 39 204 67.4418 204 102.527C204 137.611 232.428 166.053 267.495 166.053ZM266.199 137.531C284.806 137.531 299.89 122.439 299.89 103.823C299.89 85.2066 284.806 70.115 266.199 70.115C247.592 70.115 232.508 85.2066 232.508 103.823C232.508 122.439 247.592 137.531 266.199 137.531Z" fill="#F184D5"/>
<path d="M330.99 39V166.053H299.89V39H330.99Z" fill="#66C7F1"/>
<path d="M330.99 102.549C330.982 125.785 318.505 146.104 299.89 157.174V47.8788C318.505 58.9486 330.982 79.2684 330.99 102.504V102.549Z" fill="#ACA6E3"/>
<path d="M96.5079 155.547C79.33 144.178 68 124.676 68 102.527C68 67.4418 96.4276 39 131.495 39C166.562 39 194.99 67.4418 194.99 102.527C194.99 102.96 194.985 103.392 194.977 103.823L163.89 103.823C163.89 85.2066 148.806 70.115 130.199 70.115C111.592 70.115 96.5079 85.2066 96.5079 103.823C96.5079 103.831 96.5079 103.838 96.5079 103.846V155.547Z" fill="#F184D5"/>
<path d="M28.5079 155.547C11.33 144.178 0 124.676 0 102.527C0 67.4418 28.4276 39 63.4948 39C98.562 39 126.99 67.4418 126.99 102.527C126.99 102.96 126.985 103.392 126.977 103.823L95.8901 103.823C95.8901 85.2066 80.8061 70.115 62.199 70.115C43.5919 70.115 28.5079 85.2066 28.5079 103.823C28.5079 103.831 28.5079 103.838 28.5079 103.846V155.547Z" fill="#F184D5"/>
<path d="M96.5079 103.823H95.8901C95.8901 89.8834 87.4329 77.9201 75.3721 72.789C80.5524 63.0228 88.2048 54.77 97.4948 48.8656C106.521 54.6027 114.002 62.5569 119.171 71.9622C105.98 76.5319 96.5079 89.0708 96.5079 103.823Z" fill="#ACA6E3"/>
<path d="M28.5079 39V166.053H0V39H28.5079Z" fill="#66C7F1"/>
<path d="M0 102.527C0 124.676 11.33 144.178 28.5079 155.547L28.5079 103.823C28.5079 103.815 28.5079 103.808 28.5079 103.8V49.5059C11.33 60.8753 0 80.3771 0 102.527Z" fill="#ACA6E3"/>
<path d="M126.99 103.823V166.053H95.8901L95.8901 103.823L126.99 103.823Z" fill="#66C7F1"/>
<path d="M194.99 103.823V166.053H163.89L163.89 103.823L194.99 103.823Z" fill="#66C7F1"/>
<path fill-rule="evenodd" clip-rule="evenodd" d="M480.563 331.947C515.63 331.947 544.058 303.505 544.058 268.42C544.058 233.336 515.63 204.894 480.563 204.894C445.496 204.894 417.068 233.336 417.068 268.42C417.068 303.505 445.496 331.947 480.563 331.947ZM479.267 303.425C497.874 303.425 512.958 288.333 512.958 269.717C512.958 251.1 497.874 236.009 479.267 236.009C460.66 236.009 445.576 251.1 445.576 269.717C445.576 288.333 460.66 303.425 479.267 303.425Z" fill="#F184D5"/>
<path fill-rule="evenodd" clip-rule="evenodd" d="M343.207 331.947C378.274 331.947 406.702 303.505 406.702 268.42C406.702 233.336 378.274 204.894 343.207 204.894C308.14 204.894 279.712 233.336 279.712 268.42C279.712 303.505 308.14 331.947 343.207 331.947ZM341.911 303.425C360.518 303.425 375.602 288.333 375.602 269.717C375.602 251.1 360.518 236.009 341.911 236.009C323.304 236.009 308.22 251.1 308.22 269.717C308.22 288.333 323.304 303.425 341.911 303.425Z" fill="#F184D5"/>
<path d="M375.602 213.773V323.068C394.223 311.995 406.702 291.666 406.702 268.42C406.702 245.175 394.223 224.846 375.602 213.773Z" fill="#ACA6E3"/>
<path d="M142 268.5C142 290.64 153.33 310.134 170.508 321.499V268.973H170.518C170.954 250.745 185.867 236.102 204.199 236.102C222.806 236.102 238 251.364 238 269.973C238 270.032 238 269.914 238 269.973V323.059C256.56 311.976 268.99 291.69 268.99 268.5C268.99 233.43 240.562 205 205.495 205C170.428 205 142 233.43 142 268.5Z" fill="#F184D5"/>
<path d="M269 269.973V331.947H238V269.973H269Z" fill="#66C7F1"/>
<path d="M268.973 269.973C268.459 292.547 256.166 312.211 238 323.059V269.973H268.973Z" fill="#ACA6E3"/>
<path d="M170.508 205V332H142V205H170.508Z" fill="#66C7F1"/>
<path d="M142 268.5C142 290.64 153.33 310.134 170.508 321.499L170.508 269.796C170.508 269.788 170.508 269.781 170.508 269.773V215.501C153.33 226.866 142 246.36 142 268.5Z" fill="#ACA6E3"/>
<path fill-rule="evenodd" clip-rule="evenodd" d="M68.4948 331.947C103.562 331.947 131.99 303.505 131.99 268.42C131.99 233.336 103.562 204.894 68.4948 204.894C33.4276 204.894 5 233.336 5 268.42C5 303.505 33.4276 331.947 68.4948 331.947ZM67.199 303.425C85.8061 303.425 100.89 288.333 100.89 269.717C100.89 251.1 85.8061 236.009 67.199 236.009C48.5919 236.009 33.5079 251.1 33.5079 269.717C33.5079 288.333 48.5919 303.425 67.199 303.425Z" fill="#F184D5"/>
</svg>
