<svg width="511" height="167" viewBox="0 0 511 167" fill="none" xmlns="http://www.w3.org/2000/svg">
<path d="M407.099 165.947V0H376V165.947H407.099Z" fill="#66C7F1"/>
<path d="M480.099 165.947V0H449V165.947H480.099Z" fill="#66C7F1"/>
<path d="M345 39H510.947V70.0995H345V39Z" fill="#66C7F1"/>
<path d="M376 70.0995H407.099V39H376V70.0995Z" fill="#ACA6E3"/>
<path d="M449 39V70.0995H480.099V39H449Z" fill="#ACA6E3"/>
<path fill-rule="evenodd" clip-rule="evenodd" d="M267.495 166.053C302.562 166.053 330.99 137.611 330.99 102.527C330.99 67.4418 302.562 39 267.495 39C232.428 39 204 67.4418 204 102.527C204 137.611 232.428 166.053 267.495 166.053ZM266.199 137.531C284.806 137.531 299.89 122.439 299.89 103.823C299.89 85.2066 284.806 70.115 266.199 70.115C247.592 70.115 232.508 85.2066 232.508 103.823C232.508 122.439 247.592 137.531 266.199 137.531Z" fill="#F184D5"/>
<path d="M330.99 39V166.053H299.89V39H330.99Z" fill="#66C7F1"/>
<path d="M330.99 102.549C330.982 125.785 318.505 146.104 299.89 157.174V47.8788C318.505 58.9486 330.982 79.2684 330.99 102.504V102.549Z" fill="#ACA6E3"/>
<path d="M96.5079 155.547C79.33 144.178 68 124.676 68 102.527C68 67.4418 96.4276 39 131.495 39C166.562 39 194.99 67.4418 194.99 102.527C194.99 102.96 194.985 103.392 194.977 103.823L163.89 103.823C163.89 85.2066 148.806 70.115 130.199 70.115C111.592 70.115 96.5079 85.2066 96.5079 103.823C96.5079 103.831 96.5079 103.838 96.5079 103.846V155.547Z" fill="#F184D5"/>
<path d="M28.5079 155.547C11.33 144.178 0 124.676 0 102.527C0 67.4418 28.4276 39 63.4948 39C98.562 39 126.99 67.4418 126.99 102.527C126.99 102.96 126.985 103.392 126.977 103.823L95.8901 103.823C95.8901 85.2066 80.8061 70.115 62.199 70.115C43.5919 70.115 28.5079 85.2066 28.5079 103.823C28.5079 103.831 28.5079 103.838 28.5079 103.846V155.547Z" fill="#F184D5"/>
<path d="M96.5079 103.823H95.8901C95.8901 89.8834 87.4329 77.9201 75.3721 72.789C80.5524 63.0228 88.2048 54.77 97.4948 48.8656C106.521 54.6027 114.002 62.5569 119.171 71.9622C105.98 76.5319 96.5079 89.0708 96.5079 103.823Z" fill="#ACA6E3"/>
<path d="M28.5079 39V166.053H0V39H28.5079Z" fill="#66C7F1"/>
<path d="M0 102.527C0 124.676 11.33 144.178 28.5079 155.547L28.5079 103.823C28.5079 103.815 28.5079 103.808 28.5079 103.8V49.5059C11.33 60.8753 0 80.3771 0 102.527Z" fill="#ACA6E3"/>
<path d="M126.99 103.823V166.053H95.8901L95.8901 103.823L126.99 103.823Z" fill="#66C7F1"/>
<path d="M194.99 103.823V166.053H163.89L163.89 103.823L194.99 103.823Z" fill="#66C7F1"/>
</svg>
