<svg width="208" height="64" viewBox="0 0 208 64" fill="none" xmlns="http://www.w3.org/2000/svg">
<path fill-rule="evenodd" clip-rule="evenodd" d="M183.5 64C197.031 64 208 53.031 208 39.5C208 25.969 197.031 15 183.5 15C169.969 15 159 25.969 159 39.5C159 53.031 169.969 64 183.5 64ZM183 53C190.18 53 196 47.1797 196 40C196 32.8203 190.18 27 183 27C175.82 27 170 32.8203 170 40C170 47.1797 175.82 53 183 53Z" fill="#F184D5"/>
<path fill-rule="evenodd" clip-rule="evenodd" d="M130.5 64C144.031 64 155 53.031 155 39.5C155 25.969 144.031 15 130.5 15C116.969 15 106 25.969 106 39.5C106 53.031 116.969 64 130.5 64ZM130 53C137.18 53 143 47.1797 143 40C143 32.8203 137.18 27 130 27C122.82 27 117 32.8203 117 40C117 47.1797 122.82 53 130 53Z" fill="#F184D5"/>
<path d="M155 0V64H143V0H155Z" fill="#66C7F1"/>
<path d="M143 18.4243V60.5757C150.185 56.3051 155 48.4649 155 39.5C155 30.5351 150.185 22.6949 143 18.4243Z" fill="#ACA6E3"/>
<path d="M64 59.9483C57.3718 55.5635 53 48.0423 53 39.5C53 25.969 63.969 15 77.5 15C91.031 15 102 25.969 102 39.5C102 39.6671 101.998 39.8337 101.995 40H90C90 32.8203 84.1797 27 77 27C69.8203 27 64 32.8203 64 40V59.9483Z" fill="#F184D5"/>
<path d="M64 15V64H53V15H64Z" fill="#66C7F1"/>
<path d="M53 39.5C53 48.0423 57.3718 55.5635 64 59.9483V19.0518C57.3718 23.4365 53 30.9577 53 39.5Z" fill="#ACA6E3"/>
<path d="M102 40V64H90V40H102Z" fill="#66C7F1"/>
<path fill-rule="evenodd" clip-rule="evenodd" d="M24.5 64C38.031 64 49 53.031 49 39.5C49 25.969 38.031 15 24.5 15C10.969 15 0 25.969 0 39.5C0 53.031 10.969 64 24.5 64ZM24 53C31.1797 53 37 47.1797 37 40C37 32.8203 31.1797 27 24 27C16.8203 27 11 32.8203 11 40C11 47.1797 16.8203 53 24 53Z" fill="#F184D5"/>
</svg>
