<svg width="40" height="39" viewBox="0 0 40 39" fill="none" xmlns="http://www.w3.org/2000/svg">
<path fill-rule="evenodd" clip-rule="evenodd" d="M35.4667 18.9778C35.4667 27.3971 28.6415 34.2222 20.2222 34.2222C11.8029 34.2222 4.97778 27.3971 4.97778 18.9778C4.97778 10.5585 11.8029 3.73333 20.2222 3.73333C28.6415 3.73333 35.4667 10.5585 35.4667 18.9778ZM28 19.2889C28 23.7563 24.3785 27.3778 19.9111 27.3778C15.4437 27.3778 11.8222 23.7563 11.8222 19.2889C11.8222 14.8215 15.4437 11.2 19.9111 11.2C24.3785 11.2 28 14.8215 28 19.2889Z" fill="#F184D5"/>
<path d="M20.1647 11.2039C22.8901 11.2878 25.2761 12.7199 26.6781 14.8557L33.0996 3.73335L26.6333 2.15848e-05L20.1647 11.2039Z" fill="#66C7F1"/>
<path d="M26.9928 15.3769C27.6346 16.5363 28 17.8699 28 19.2889C28 20.5642 27.7048 21.7707 27.1791 22.8436H39.8222V15.3769H26.9928Z" fill="#66C7F1"/>
<path d="M26.7866 23.5523C25.4346 25.728 23.0786 27.2148 20.3662 27.3652L26.6334 38.2204L33.0998 34.4871L26.7866 23.5523Z" fill="#66C7F1"/>
<path d="M19.4558 27.3652C16.7434 27.2147 14.3875 25.7278 13.0355 23.552L6.72218 34.4871L13.1885 38.2204L19.4558 27.3652Z" fill="#66C7F1"/>
<path d="M12.6431 22.8436C12.1174 21.7707 11.8222 20.5642 11.8222 19.2889C11.8222 17.8699 12.1876 16.5363 12.8294 15.3769H0V22.8436H12.6431Z" fill="#66C7F1"/>
<path d="M13.144 14.856L6.72233 3.73333L13.1887 0L19.6572 11.2039C16.9319 11.2879 14.546 12.7201 13.144 14.856Z" fill="#66C7F1"/>
<path d="M9.35266 8.28925L13.144 14.856C14.546 12.7201 16.9319 11.2879 19.6572 11.2039L15.7321 4.40542C13.2861 5.15819 11.1026 6.50986 9.35266 8.28925Z" fill="#ACA6E3"/>
<path d="M24.1786 4.2518L20.1647 11.2039C22.8901 11.2878 25.2761 12.7199 26.6781 14.8557L30.6943 7.8995C28.8847 6.18836 26.6561 4.91577 24.1786 4.2518Z" fill="#ACA6E3"/>
<path d="M35.0389 15.377L26.9928 15.3769C27.6346 16.5363 28 17.8699 28 19.2889C28 20.5642 27.7048 21.7707 27.1791 22.8436L34.9722 22.8436C35.2949 21.6091 35.4667 20.3135 35.4667 18.9778C35.4667 17.7373 35.3185 16.5315 35.0389 15.377Z" fill="#ACA6E3"/>
<path d="M30.5952 30.1491L26.7866 23.5523C25.4346 25.728 23.0786 27.2148 20.3662 27.3652L24.0459 33.7388C26.5314 33.0968 28.7711 31.8436 30.5952 30.1491Z" fill="#ACA6E3"/>
<path d="M15.8621 33.5896L19.4558 27.3652C16.7434 27.2147 14.3875 25.7278 13.0355 23.552L9.44923 29.7637C11.2139 31.5263 13.4085 32.8586 15.8621 33.5896Z" fill="#ACA6E3"/>
<path d="M5.47223 22.8436L12.6431 22.8436C12.1174 21.7707 11.8222 20.5642 11.8222 19.2889C11.8222 17.8699 12.1876 16.5363 12.8294 15.3769L5.40553 15.377C5.12594 16.5315 4.97778 17.7373 4.97778 18.9778C4.97778 20.3135 5.14956 21.6091 5.47223 22.8436Z" fill="#ACA6E3"/>
</svg>
