<svg width="1200" height="1200" viewBox="0 0 1200 1200" fill="none" xmlns="http://www.w3.org/2000/svg">
<rect width="1200" height="1200" fill="#171717"/>
<path d="M595.678 832.025C520.443 782.271 470.821 696.929 470.821 600C470.821 446.465 595.326 322 748.91 322C902.495 322 1027 446.465 1027 600C1027 601.896 1026.98 603.787 1026.94 605.673L890.793 605.673C890.793 524.206 824.729 458.163 743.235 458.163C661.741 458.163 595.677 524.206 595.677 605.673C595.677 605.707 595.678 605.74 595.678 605.774V832.025Z" fill="#F184D5"/>
<path d="M297.857 832.025C222.622 782.271 173 696.929 173 600C173 446.465 297.505 322 451.089 322C604.674 322 729.179 446.465 729.179 600C729.179 601.896 729.16 603.787 729.122 605.673L592.972 605.673C592.972 524.206 526.908 458.163 445.414 458.163C363.92 458.163 297.856 524.206 297.856 605.673C297.856 605.707 297.856 605.74 297.857 605.774V832.025Z" fill="#F184D5"/>
<path d="M595.677 605.673H592.972C592.972 544.672 555.932 492.319 503.109 469.865C525.797 427.127 559.313 391.012 600 365.173C639.534 390.279 672.297 425.088 694.936 466.247C637.162 486.244 595.677 541.116 595.677 605.673Z" fill="#ACA6E3"/>
<path d="M297.857 322V878H173V322H297.857Z" fill="#66C7F1"/>
<path d="M173 600C173 696.929 222.622 782.271 297.857 832.025L297.856 605.673C297.856 605.64 297.856 605.607 297.857 605.574V367.975C222.622 417.729 173 503.071 173 600Z" fill="#ACA6E3"/>
<path d="M729.179 605.673V878H592.972L592.972 605.673L729.179 605.673Z" fill="#66C7F1"/>
<path d="M1027 605.673V878H890.793L890.793 605.673L1027 605.673Z" fill="#66C7F1"/>
</svg>
